<?xml version="1.0" encoding="UTF-8"?>
<svg width="16px" height="16px" viewBox="0 0 16 16" version="1.1" xmlns="http://www.w3.org/2000/svg" xmlns:xlink="http://www.w3.org/1999/xlink">
    <title>EA550CFB-FBB9-45D7-9821-3EDC286AA2DA</title>
    <g id="Site-Pages-" stroke="none" stroke-width="1" fill="none" fill-rule="evenodd">
        <g id="Landing-Page---DM" transform="translate(-2724.000000, -254.000000)">
            <g id="Annotations" transform="translate(1444.000000, 0.000000)">
                <g id="Logo" transform="translate(82.000000, 76.000000)">
                    <g id="Light---White" transform="translate(1198.000000, 178.000000)">
                        <polygon id="Path" points="0 0 16 0 16 16 0 16"></polygon>
                        <path d="M4.50666667,3.22666667 L3.30666667,2.03333333 L2.36666667,2.97333333 L3.56,4.16666667 L4.50666667,3.22666667 Z M2.66666667,7 L0.666666667,7 L0.666666667,8.33333333 L2.66666667,8.33333333 L2.66666667,7 Z M8.66666667,0.366666667 L7.33333333,0.366666667 L7.33333333,2.33333333 L8.66666667,2.33333333 L8.66666667,0.366666667 L8.66666667,0.366666667 Z M13.6333333,2.97333333 L12.6933333,2.03333333 L11.5,3.22666667 L12.44,4.16666667 L13.6333333,2.97333333 Z M11.4933333,12.1066667 L12.6866667,13.3066667 L13.6266667,12.3666667 L12.4266667,11.1733333 L11.4933333,12.1066667 Z M13.3333333,7 L13.3333333,8.33333333 L15.3333333,8.33333333 L15.3333333,7 L13.3333333,7 Z M8,3.66666667 C5.79333333,3.66666667 4,5.46 4,7.66666667 C4,9.87333333 5.79333333,11.6666667 8,11.6666667 C10.2066667,11.6666667 12,9.87333333 12,7.66666667 C12,5.46 10.2066667,3.66666667 8,3.66666667 Z M7.33333333,14.9666667 L8.66666667,14.9666667 L8.66666667,13 L7.33333333,13 L7.33333333,14.9666667 Z M2.36666667,12.36 L3.30666667,13.3 L4.5,12.1 L3.56,11.16 L2.36666667,12.36 Z" id="Shape" fill="#FFFFFF" fill-rule="nonzero"></path>
                    </g>
                </g>
            </g>
        </g>
    </g>
</svg>