<?xml version="1.0" encoding="UTF-8"?>
<svg width="32px" height="32px" viewBox="0 0 32 32" version="1.1" xmlns="http://www.w3.org/2000/svg" xmlns:xlink="http://www.w3.org/1999/xlink">
    <title>8AF78F1A-55AD-463E-A348-3EA05D61F433</title>
    <g id="Site-Pages-" stroke="none" stroke-width="1" fill="none" fill-rule="evenodd">
        <g id="Landing-Page---DM" transform="translate(-3668.000000, -331.000000)">
            <g id="Annotations" transform="translate(1544.000000, 0.000000)">
                <g id="Downloads" transform="translate(2074.000000, 28.000000)">
                    <g id="GitHub---Green" transform="translate(50.000000, 303.000000)">
                        <circle id="Oval" stroke="#449A42" stroke-width="0.5" cx="16" cy="16" r="15.75"></circle>
                        <path d="M11.9949661,6.22052226 C13.27088,5.86735005 14.6401056,5.69173956 16.0004911,5.68491026 C17.3598944,5.69173956 18.7281378,5.86735005 20.0060161,6.22052226 C23.0607447,4.16392828 24.4014856,4.59124714 24.4014856,4.59124714 C25.2746861,6.77857338 24.7256208,8.39516552 24.5615888,8.79711843 C25.5870346,9.90736699 26.2058381,11.3268851 26.2058381,13.0615265 C26.2058381,19.166918 22.4645324,20.5103383 18.9010099,20.9035106 C19.4746309,21.3942444 19.9863716,22.3640046 19.9863716,23.845962 C19.9863716,25.970849 19.966727,27.6850025 19.966727,28.2059803 L19.9669977,28.2194205 L19.967772,29 L12.0335736,29 L12.0335736,29 L12.0341502,28.2198335 C12.0342203,28.2152081 12.0342552,28.21059 12.0342552,28.2059803 C12.0342552,27.8284177 12.020504,26.8293891 12.0126462,25.5035299 C7.56217195,26.4635339 6.62316216,23.3727893 6.62316216,23.3727893 C5.95131833,21.6779229 5.0057991,21.1310711 4.86431001,21.0569689 L4.84631204,21.0479015 L4.84631204,21.0479015 C3.49044477,20.1282228 4.76136025,20.0839083 4.93684172,20.0820871 L4.95632156,20.0820438 L4.95632156,20.0820438 C6.56226404,20.1942394 7.40697996,21.7200994 7.40697996,21.7200994 C8.83415697,24.1484023 11.1522146,23.4469359 12.063722,23.040105 C12.2090917,22.0137592 12.6226097,21.3132685 13.0793456,20.9161936 C9.52662758,20.5152163 5.7912152,19.1513082 5.7912152,13.0615265 C5.7912152,11.3268851 6.41492986,9.90736699 7.43841125,8.79711843 C7.27339697,8.39516552 6.72433162,6.77857338 7.5955677,4.59124714 C7.5955677,4.59124714 8.93827312,4.16392828 11.9949661,6.22052226 Z" id="Combined-Shape" fill="#449A42"></path>
                    </g>
                </g>
            </g>
        </g>
    </g>
</svg>