<?xml version="1.0" encoding="UTF-8"?>
<svg width="32px" height="32px" viewBox="0 0 32 32" version="1.1" xmlns="http://www.w3.org/2000/svg" xmlns:xlink="http://www.w3.org/1999/xlink">
    <title>3A42C321-BAC6-4CB0-8CDF-E955E60AC772</title>
    <g id="Site-Pages-" stroke="none" stroke-width="1" fill="none" fill-rule="evenodd">
        <g id="Landing-Page---DM" transform="translate(-3620.000000, -331.000000)">
            <g id="Annotations" transform="translate(1544.000000, 0.000000)">
                <g id="Downloads" transform="translate(2074.000000, 28.000000)">
                    <g id="LinkedIn---Green" transform="translate(2.000000, 303.000000)">
                        <circle id="Oval" stroke="#449A42" stroke-width="0.5" cx="16" cy="16" r="15.75"></circle>
                        <g id="LI" transform="translate(6.000000, 6.000000)" fill="#49A341">
                            <circle id="Oval" cx="2.22222222" cy="2.22222222" r="2.22222222"></circle>
                            <rect id="Rectangle" x="0" y="6.11111111" width="4.44444444" height="13.3333333"></rect>
                            <path d="M6.66666667,6.11111111 L11.1111111,6.11111111 L11.1111111,7.61619769 C11.8149422,6.96264063 12.4075505,6.54212392 12.8889361,6.35464756 C13.3703217,6.1671712 14.1751555,6.08599238 15.3034375,6.11111111 C16.579822,6.11111111 17.6050104,6.66449818 18.3790026,7.77127231 C19.1529948,8.87804645 19.53597,10.3361188 19.527928,12.1454895 L19.527928,19.4444444 L15.3034375,19.4444444 L15.3034375,12.1454895 C15.1577965,10.5248075 14.4226099,9.71446653 13.0978779,9.71446653 C11.7731458,9.71446653 11.1108902,10.5248075 11.1111111,12.1454895 L11.1111111,19.4444444 L6.66666667,19.4444444 L6.66666667,6.11111111 Z" id="Rectangle"></path>
                        </g>
                    </g>
                </g>
            </g>
        </g>
    </g>
</svg>