<?xml version="1.0" encoding="UTF-8"?>
<svg width="32px" height="32px" viewBox="0 0 32 32" version="1.1" xmlns="http://www.w3.org/2000/svg" xmlns:xlink="http://www.w3.org/1999/xlink">
    <title>46D19D40-8A82-43C9-ACE7-A7A401A3E1B1</title>
    <g id="Site-Pages-" stroke="none" stroke-width="1" fill="none" fill-rule="evenodd">
        <g id="Landing-Page---DM" transform="translate(-3716.000000, -331.000000)">
            <g id="Annotations" transform="translate(1544.000000, 0.000000)">
                <g id="Downloads" transform="translate(2074.000000, 28.000000)">
                    <g id="LinkedIn---Gray" transform="translate(98.000000, 303.000000)">
                        <circle id="Oval" cx="16" cy="16" r="16"></circle>
                        <g id="LI" transform="translate(6.000000, 6.000000)" fill="#DADADA">
                            <circle id="Oval" cx="2.22222222" cy="2.22222222" r="2.22222222"></circle>
                            <rect id="Rectangle" x="0" y="6.11111111" width="4.44444444" height="13.3333333"></rect>
                            <path d="M6.66666667,6.11111111 L11.1111111,6.11111111 L11.1111111,7.61619769 C11.9538496,6.93633174 12.6159117,6.50266059 13.0972973,6.31518423 C13.5786829,6.12770787 14.314063,6.05968349 15.3034375,6.11111111 C16.579822,6.11111111 17.6050104,6.66449818 18.3790026,7.77127231 C19.1529948,8.87804645 19.53597,10.3361188 19.527928,12.1454895 L19.527928,19.4444444 L15.3034375,19.4444444 L15.3034375,12.1454895 C15.1577965,10.5248075 14.4226099,9.71446653 13.0978779,9.71446653 C11.7731458,9.71446653 11.1108902,10.5248075 11.1111111,12.1454895 L11.1111111,19.4444444 L6.66666667,19.4444444 L6.66666667,6.11111111 Z" id="Rectangle"></path>
                        </g>
                    </g>
                </g>
            </g>
        </g>
    </g>
</svg>